<svg xmlns="http://www.w3.org/2000/svg" viewBox="0 0 1056 234" width="1056" height="234"><defs><clipPath id="a"><path d="M390.875 20h138v56h-138z"/></clipPath><clipPath id="b"><path d="M588.875 20h138v56h-138z"/></clipPath><clipPath id="c"><path d="M588.875 136h138v56h-138z"/></clipPath><clipPath id="d"><path d="M191.625 20h138v56h-138z"/></clipPath><marker orient="auto" overflow="visible" id="e" stroke-miterlimit="10" viewBox="-1 -5 10 10" markerWidth="10" markerHeight="10" color="#616161"><path d="M8 0H0m4-4l4 4-4 4" fill="none" stroke="currentColor"/></marker><clipPath id="f"><path d="M390.875 136h138v56h-138z"/></clipPath><clipPath id="g"><path d="M787 20h138v56H787z"/></clipPath></defs><g fill="none"><title>Architecture of the CI/CD pipeline</title><path fill="#fff" d="M0 0h1056v234H0z"/><title>Layer 2</title><title>Container Builder</title><path fill="#fff" d="M390.875 20h138v56h-138z"/><path stroke="#dfdfdf" stroke-linecap="round" stroke-linejoin="round" stroke-width="2" clip-path="url(#a)" d="M390.875 20h138v56h-138z"/><text transform="translate(441.875 34)" fill="#212121"><tspan font-family="Roboto" font-size="12" font-weight="400" x="0" y="11">Cloud</tspan> <tspan font-family="Roboto" font-size="12" font-weight="400" x="0" y="25">Build</tspan></text><title>Container Builder</title><title>Fill-1</title><path d="M434.541 46.714l-5.754-10.006c-.461-.8-1.297-1.286-2.158-1.286h-11.508c-.922 0-1.727.54-2.158 1.285l-5.754 9.986a2.51 2.51 0 0 0 0 2.502l5.754 10.052c.46.798 1.297 1.331 2.158 1.331h11.508c.922 0 1.727-.581 2.158-1.326l5.754-10.006a2.566 2.566 0 0 0 0-2.532" fill="#4285f4"/><title>Fill-4</title><path d="M433.375 51.289l-6.995-6.995-5.505-1.818-5.487 1.817 3.302 3.303.007.213-1.196-1.196-2.587 4.847 9.118 9.118h2.606c.922 0 1.727-.581 2.158-1.326z" fill="#000" fill-opacity=".07"/><title>Fill-6</title><path d="M420.884 50.814l2.425-1.4v-2.8l-.815-.472-2.426 4.201z" fill="#fff"/><title>Fill-8</title><path d="M418.458 46.613v2.8l.816.472 2.425-4.201-.815-.471z" fill="#fff"/><title>Fill-10</title><path d="M420.408 51.645l-2.907-1.678v-3.354l-2.587-1.494v6.34l5.494 3.173z" fill="#fff"/><title>Fill-12</title><path d="M417.974 45.787l2.91-1.68 2.91 1.68 2.586-1.493-5.496-3.174-5.496 3.173z" fill="#fff"/><title>Fill-14</title><path d="M424.267 46.614v3.353l-2.907 1.678v2.987l5.493-3.172v-6.34z" fill="#fff"/><title>Artifact Registry</title><path fill="#fff" d="M588.875 20h138v56h-138z"/><path stroke="#dfdfdf" stroke-linecap="round" stroke-linejoin="round" stroke-width="2" clip-path="url(#b)" d="M588.875 20h138v56h-138z"/><text transform="translate(639.875 34)" fill="#212121"><tspan font-family="Roboto" font-size="12" font-weight="400" x="0" y="11">Artifact </tspan> <tspan font-family="Roboto" font-size="12" font-weight="400" x="0" y="25">Registry</tspan></text><title>Artifact Registry</title><title>Fill-1</title><path d="M632.541 46.714l-5.754-10.006c-.461-.8-1.297-1.286-2.158-1.286h-11.508c-.922 0-1.727.54-2.158 1.285l-5.754 9.986a2.51 2.51 0 0 0 0 2.502l5.754 10.052c.46.798 1.297 1.331 2.158 1.331h11.508c.922 0 1.727-.581 2.158-1.326l5.754-10.006a2.566 2.566 0 0 0 0-2.532" fill="#4285f4"/><title>Fill-4</title><path d="M625.885 43.95l-2.69-.653-.414.426 2.072 2.072.022 2.84-4.275-4.274-3.475-.007-2.188-2.187-2.296 1.95-.787 7.923 8.539 8.538h4.236c.922 0 1.727-.581 2.158-1.326l5.257-9.143z" fill="#000" fill-opacity=".07"/><title>Fill-7</title><path d="M617.125 46.387l1.75 1.011 1.75-1.011v-2.024l-1.75-1.011-1.75 1.011z" fill="#fff"/><title>Fill-9</title><path d="M619.531 50.516l1.75 1.011 1.75-1.011v-2.024l-1.75-1.012-1.75 1.012z" fill="#fff"/><title>Fill-11</title><path d="M614.719 50.57l1.75 1.012 1.75-1.012v-2.023l-1.75-1.012-1.75 1.012z" fill="#fff"/><title>Fill-13</title><path d="M614.938 43.721l-1.75 1.01v6.538l1.75 1.01v1.55l-3.063-1.768v-8.122l3.063-1.768z" fill="#fff"/><title>Fill-15</title><path d="M622.813 43.721l1.75 1.01v6.538l-1.75 1.01v1.55l3.062-1.768v-8.122l-3.062-1.768z" fill="#fff"/><title>Container Builder</title><path fill="#fff" d="M588.875 136h138v56h-138z"/><path stroke="#dfdfdf" stroke-linecap="round" stroke-linejoin="round" stroke-width="2" clip-path="url(#c)" d="M588.875 136h138v56h-138z"/><text transform="translate(639.875 150)" fill="#212121"><tspan font-family="Roboto" font-size="12" font-weight="400" x="0" y="11">Cloud</tspan> <tspan font-family="Roboto" font-size="12" font-weight="400" x="0" y="25">Build</tspan></text><title>Container Builder</title><title>Fill-1</title><path d="M632.541 162.714l-5.754-10.006c-.461-.8-1.297-1.286-2.158-1.286h-11.508c-.922 0-1.727.54-2.158 1.285l-5.754 9.986a2.51 2.51 0 0 0 0 2.502l5.754 10.052c.46.798 1.297 1.331 2.158 1.331h11.508c.922 0 1.727-.581 2.158-1.326l5.754-10.006a2.566 2.566 0 0 0 0-2.532" fill="#4285f4"/><title>Fill-4</title><path d="M631.375 167.289l-6.995-6.995-5.505-1.818-5.487 1.817 3.302 3.303.007.213-1.196-1.196-2.587 4.847 9.118 9.118h2.606c.922 0 1.727-.581 2.158-1.326z" fill="#000" fill-opacity=".07"/><title>Fill-6</title><path d="M618.884 166.814l2.425-1.4v-2.8l-.815-.472-2.426 4.201z" fill="#fff"/><title>Fill-8</title><path d="M616.458 162.613v2.8l.816.472 2.425-4.201-.815-.471z" fill="#fff"/><title>Fill-10</title><path d="M618.408 167.645l-2.908-1.679v-3.353l-2.586-1.494v6.34l5.494 3.173z" fill="#fff"/><title>Fill-12</title><path d="M615.974 161.787l2.91-1.68 2.91 1.68 2.586-1.493-5.496-3.174-5.496 3.173z" fill="#fff"/><title>Fill-14</title><path d="M622.267 162.614v3.353l-2.907 1.678v2.987l5.493-3.172v-6.34z" fill="#fff"/><title>Cloud Source Repositories</title><path fill="#fff" d="M191.625 20h138v56h-138z"/><path stroke="#dfdfdf" stroke-linecap="round" stroke-linejoin="round" stroke-width="2" clip-path="url(#d)" d="M191.625 20h138v56h-138z"/><text transform="translate(242.625 34)" fill="#212121"><tspan font-family="Roboto" font-size="12" font-weight="400" x="0" y="11">Application</tspan> <tspan font-family="Roboto" font-size="12" font-weight="400" x="0" y="25">Source Code</tspan></text><title>Cloud Source Repositories</title><title>Fill-1</title><path d="M235.291 46.714l-5.754-10.006c-.461-.8-1.297-1.286-2.158-1.286h-11.508c-.922 0-1.727.54-2.158 1.285l-5.754 9.986a2.51 2.51 0 0 0 0 2.502l5.754 10.052c.46.798 1.297 1.331 2.158 1.331h11.508c.922 0 1.727-.581 2.158-1.326l5.754-10.006a2.566 2.566 0 0 0 0-2.532" fill="#4285f4"/><title>Fill-4</title><path d="M225.051 42.475l-5.836.94-1.146 3.828-1.767-1.537 1.855 7.795 7.077 7.077h2.145c.922 0 1.727-.581 2.158-1.326l4.47-7.772z" fill="#000" fill-opacity=".07"/><title>Fill-6</title><path d="M223.322 48.017a1.734 1.734 0 1 1-3.468 0 1.734 1.734 0 0 1 3.468 0" fill="#fff"/><title>Fill-8</title><path d="M228.01 47.57l-1.298-2.262h-2.65l1.552 2.698-.418.729-1.579 2.742-.487.846-.853 1.465h2.151a.875.875 0 0 0 .753-.437l2.83-4.907a.875.875 0 0 0 0-.864" fill="#fff"/><title>Fill-10</title><path d="M219.624 51.477l-1.996-3.47-1.326-2.3-1.071 1.862a.875.875 0 0 0 0 .864l2.819 4.92c.155.27.441.436.752.438h2.589l1.336-2.314z" fill="#fff"/><g><title>Fill-12</title><path d="M226.27 44.536l-1.076-1.876a.875.875 0 0 0-.752-.438h-5.64a.875.875 0 0 0-.752.438l-1.308 2.285 1.327 2.298 1.553-2.698h6.648z" fill="#fff"/></g><g><text transform="translate(341.375 30.5)" fill="#757575"><tspan font-family="Roboto" font-size="10" font-weight="400" x="0" y="9">Triggers</tspan></text></g><g><text transform="translate(150.375 29.5)" fill="#757575"><tspan font-family="Roboto" font-size="10" font-weight="400" x="0" y="9">Push</tspan></text></g><g><text transform="translate(548.125 30.5)" fill="#757575"><tspan font-family="Roboto" font-size="10" font-weight="400" x="0" y="9">Push</tspan></text></g><g><text transform="translate(545.625 53.5)" fill="#757575"><tspan font-family="Roboto" font-size="10" font-weight="400" x="0" y="9">Image</tspan></text></g><g><text transform="translate(747.925 30.5)" fill="#757575"><tspan font-family="Roboto" font-size="10" font-weight="400" x="0" y="9">Pull</tspan></text></g><g><text transform="translate(742.425 53.5)" fill="#757575"><tspan font-family="Roboto" font-size="10" font-weight="400" x="0" y="9">Image</tspan></text></g><g><text transform="translate(540.125 146.5)" fill="#757575"><tspan font-family="Roboto" font-size="10" font-weight="400" x="0" y="9">Triggers</tspan></text></g><g><text transform="translate(201.125 89)" fill="#757575"><tspan font-family="Roboto" font-size="10" font-weight="500" x=".286" y="9">Cloud Source Repositories</tspan></text></g><g><text transform="translate(400.375 205.333)" fill="#757575"><tspan font-family="Roboto" font-size="10" font-weight="500" x=".286" y="9">Cloud Source Repositories</tspan></text></g><g><text transform="translate(775.45 146.5)" fill="#757575"><tspan font-family="Roboto" font-size="10" font-weight="400" x="0" y="9">Applies</tspan></text></g><g><text transform="translate(769.45 169.5)" fill="#757575"><tspan font-family="Roboto" font-size="10" font-weight="400" x="0" y="9">Manifests</tspan></text></g><g><title>path</title><path marker-end="url(#e)" stroke="#616161" stroke-linecap="round" stroke-linejoin="round" d="M459.375 76v51.1"/></g><g><text transform="translate(465.375 101)" fill="#757575"><tspan font-family="Roboto" font-size="10" font-weight="400" x="0" y="9">Updates</tspan></text></g><g><title>Cloud Source Repositories</title><path fill="#fff" d="M390.875 136h138v56h-138z"/><path stroke="#dfdfdf" stroke-linecap="round" stroke-linejoin="round" stroke-width="2" clip-path="url(#f)" d="M390.875 136h138v56h-138z"/><text transform="translate(441.875 150)" fill="#212121"><tspan font-family="Roboto" font-size="12" font-weight="400" x="0" y="11">Deployment</tspan> <tspan font-family="Roboto" font-size="12" font-weight="400" x="0" y="25">Manifests</tspan></text><title>Cloud Source Repositories</title><title>Fill-1</title><path d="M434.541 162.714l-5.754-10.006c-.461-.8-1.297-1.286-2.158-1.286h-11.508c-.922 0-1.727.54-2.158 1.285l-5.754 9.986a2.51 2.51 0 0 0 0 2.502l5.754 10.052c.46.798 1.297 1.331 2.158 1.331h11.508c.922 0 1.727-.581 2.158-1.326l5.754-10.006a2.566 2.566 0 0 0 0-2.532" fill="#4285f4"/><title>Fill-4</title><path d="M424.301 158.475l-5.836.94-1.146 3.828-1.767-1.537 1.855 7.795 7.077 7.077h2.145c.922 0 1.727-.581 2.158-1.326l4.47-7.772z" fill="#000" fill-opacity=".07"/><title>Fill-6</title><path d="M422.572 164.017a1.734 1.734 0 1 1-3.468 0 1.734 1.734 0 0 1 3.468 0" fill="#fff"/><title>Fill-8</title><path d="M427.26 163.57l-1.298-2.262h-2.65l1.552 2.698-.418.729-1.579 2.742-.488.846-.852 1.465h2.151a.875.875 0 0 0 .753-.437l2.83-4.907a.875.875 0 0 0 0-.864" fill="#fff"/><title>Fill-10</title><path d="M418.874 167.477l-1.996-3.47-1.326-2.3-1.071 1.862a.875.875 0 0 0 0 .864l2.819 4.92c.155.27.441.436.752.438h2.589l1.336-2.314z" fill="#fff"/><g><title>Fill-12</title><path d="M425.52 160.536l-1.076-1.876a.875.875 0 0 0-.752-.438h-5.64a.875.875 0 0 0-.752.438l-1.308 2.285 1.327 2.298 1.553-2.698h6.648z" fill="#fff"/></g></g><g><title>Container Engine</title><path fill="#fff" d="M787 20h138v56H787z"/><path stroke="#dfdfdf" stroke-linecap="round" stroke-linejoin="round" stroke-width="2" clip-path="url(#g)" d="M787 20h138v56H787z"/><text transform="translate(838 34)" fill="#212121"><tspan font-family="Roboto" font-size="12" font-weight="400" x="0" y="11">Kubernetes </tspan> <tspan font-family="Roboto" font-size="12" font-weight="400" x="0" y="25">Engine</tspan></text><title>Container Engine</title><title>Fill-1</title><path d="M830.666 46.714l-5.754-10.006c-.461-.8-1.297-1.286-2.158-1.286h-11.508c-.922 0-1.727.54-2.158 1.285l-5.754 9.986a2.51 2.51 0 0 0 0 2.502l5.754 10.052c.46.798 1.297 1.331 2.158 1.331h11.508c.922 0 1.727-.581 2.158-1.326l5.754-10.006a2.566 2.566 0 0 0 0-2.532" fill="#4285f4"/><title>Fill-4</title><path d="M822.606 44.597L817 42.094l-5.36 2.912-.224 6.417 9.156 9.155h2.182c.922 0 1.727-.581 2.158-1.326l4.509-7.841z" fill="#000" fill-opacity=".07"/><title>Fill-7</title><path d="M821.764 50.417l-1.807-1.042v-2.749l-2.669 1.54v3.082l2.38-1.374 1.807 1.043L817 53.501l-4.475-2.584 1.807-1.043 2.38 1.374v-3.082l-2.67-1.54v2.749l-1.806 1.042v-5.166l4.475-2.584v2.085l-2.38 1.375 2.669 1.54 2.668-1.54-2.38-1.375v-2.085l4.476 2.584zm.71-5.918l-5.18-2.99a.595.595 0 0 0-.59 0l-5.179 2.99a.592.592 0 0 0-.295.512v5.98c0 .21.113.406.295.51l5.18 2.99a.59.59 0 0 0 .59 0l5.179-2.99a.588.588 0 0 0 .295-.51v-5.98a.592.592 0 0 0-.295-.512z" fill="#fff"/></g><g><path d="M131.125 47h51.6a.5.5 0 0 0 0-1h-51.6a.5.5 0 0 0 0 1zm59.6-1h-8v1h8zm-4.354-3.146l4 4v-.708l-4 4 .708.708 4-4 .353-.354-.353-.354-4-4z" fill="#616161"/></g><g><path d="M329.625 48h52.6a.5.5 0 0 0 0-1h-52.6a.5.5 0 0 0 0 1zm60.6-1h-8v1h8zm-4.354-3.146l4 4v-.708l-4 4 .708.708 4-4 .353-.354-.353-.354-4-4z" fill="#616161"/></g><g><path d="M528.875 48h51.6a.5.5 0 0 0 0-1h-51.6a.5.5 0 0 0 0 1zm59.6-1h-8v1h8zm-4.354-3.146l4 4v-.708l-4 4 .708.708 4-4 .353-.354-.353-.354-4-4z" fill="#616161"/></g><g><path d="M786.925 47h-51.1a.5.5 0 0 0 0 1h51.1a.5.5 0 1 0 0-1zm-59.1 1h8v-1h-8zm4.354 3.146l-4-4v.708l4-4-.707-.708-4 4-.354.354.353.354 4 4z" fill="#616161"/></g><g><path d="M726.875 164.5H856a.5.5 0 0 0 .5-.5V85.9a.5.5 0 0 0-1 0V164l.5-.5H726.875a.5.5 0 0 0 0 1zM855.5 77.9v8h1v-8zm-3.146 4.354l4-4h-.708l4 4 .708-.708-4-4-.354-.353-.354.353-4 4z" fill="#616161"/></g><g><path d="M528.875 164h51.6a.5.5 0 0 0 0-1h-51.6a.5.5 0 0 0 0 1zm59.6-1h-8v1h8zm-4.354-3.146l4 4v-.708l-4 4 .708.708 4-4 .353-.354-.353-.354-4-4z" fill="#616161"/></g></g></svg>